<svg fill="#000000" width="34px" height="34px" viewBox="0 0 24 24" id="clipboard-add" data-name="Flat Line"
    xmlns="http://www.w3.org/2000/svg" class="icon flat-line">
    <path id="secondary" d="M17,5H14V7H8V5H5A1,1,0,0,0,4,6V20a1,1,0,0,0,1,1h7V15a2,2,0,0,1,2-2h4V6A1,1,0,0,0,17,5Z"
        style="fill: rgb(44, 169, 188); stroke-width: 2;"></path>
    <path id="primary" d="M14,5h3a1,1,0,0,1,1,1v7"
        style="fill: none; stroke: rgb(0, 0, 0); stroke-linecap: round; stroke-linejoin: round; stroke-width: 2;">
    </path>
    <path id="primary-2" data-name="primary" d="M8,5H5A1,1,0,0,0,4,6V20a1,1,0,0,0,1,1h7"
        style="fill: none; stroke: rgb(0, 0, 0); stroke-linecap: round; stroke-linejoin: round; stroke-width: 2;">
    </path>
    <path id="primary-3" data-name="primary" d="M14,7H8V4A1,1,0,0,1,9,3h4a1,1,0,0,1,1,1ZM8,17h4M8,13h6m2,6h4m-2-2v4"
        style="fill: none; stroke: rgb(0, 0, 0); stroke-linecap: round; stroke-linejoin: round; stroke-width: 2;">
    </path>
</svg>