<svg fill="#000000" width="32px" height="32px" viewBox="0 0 24 24" id="clipboard-edit" data-name="Flat Line"
    xmlns="http://www.w3.org/2000/svg" class="icon flat-line">
    <path id="secondary"
        d="M15.8,17H13V14.2l4-4V6a1,1,0,0,0-1-1H13V7H7V5H4A1,1,0,0,0,3,6V20a1,1,0,0,0,1,1H16a1,1,0,0,0,1-1V15.8Z"
        style="fill: rgb(44, 169, 188); stroke-width: 1.3;"></path>
    <path id="primary" d="M13,5h3a1,1,0,0,1,1,1v4"
        style="fill: none; stroke: rgb(0, 0, 0); stroke-linecap: round; stroke-linejoin: round; stroke-width: 1.3;">
    </path>
    <path id="primary-2" data-name="primary" d="M7,5H4A1,1,0,0,0,3,6V20a1,1,0,0,0,1,1H16a1,1,0,0,0,1-1V16"
        style="fill: none; stroke: rgb(0, 0, 0); stroke-linecap: round; stroke-linejoin: round; stroke-width: 1.3;">
    </path>
    <path id="primary-3" data-name="primary"
        d="M13,7H7V4A1,1,0,0,1,8,3h4a1,1,0,0,1,1,1Zm7.71,3.69-1.4-1.4a1,1,0,0,0-1.4,0L13,14.2V17h2.8l4.91-4.91A1,1,0,0,0,20.71,10.69Z"
        style="fill: none; stroke: rgb(0, 0, 0); stroke-linecap: round; stroke-linejoin: round; stroke-width: 1.3;">
    </path>
</svg>