<svg fill="#000000" width="34px" height="34px" viewBox="0 0 24 24" id="clipboard-checklist-4" data-name="Flat Line"
    xmlns="http://www.w3.org/2000/svg" class="icon flat-line">
    <path id="secondary" d="M17,5H14V7H8V5H5A1,1,0,0,0,4,6V20a1,1,0,0,0,1,1h6V16a2,2,0,0,1,2-2h5V6A1,1,0,0,0,17,5Z"
        style="fill: rgb(44, 169, 188); stroke-width: 2;"></path>
    <path id="primary" d="M18,14V6a1,1,0,0,0-1-1H14"
        style="fill: none; stroke: rgb(0, 0, 0); stroke-linecap: round; stroke-linejoin: round; stroke-width: 2;">
    </path>
    <path id="primary-2" data-name="primary" d="M11,21H5a1,1,0,0,1-1-1V6A1,1,0,0,1,5,5H8"
        style="fill: none; stroke: rgb(0, 0, 0); stroke-linecap: round; stroke-linejoin: round; stroke-width: 2;">
    </path>
    <path id="primary-3" data-name="primary" d="M14,4a1,1,0,0,0-1-1H9A1,1,0,0,0,8,4V7h6ZM8,17h3M8,13h6"
        style="fill: none; stroke: rgb(0, 0, 0); stroke-linecap: round; stroke-linejoin: round; stroke-width: 2;">
    </path>
    <polyline id="primary-4" data-name="primary" points="14 19 16 21 20 17"
        style="fill: none; stroke: rgb(0, 0, 0); stroke-linecap: round; stroke-linejoin: round; stroke-width: 2;">
    </polyline>
</svg>