<svg width="34px" height="34px" viewBox="0 0 24 24" id="debit-purchase" data-name="Flat Line"
    xmlns="http://www.w3.org/2000/svg" class="icon flat-line">
    <path id="secondary" d="M3,9H21a0,0,0,0,1,0,0v9a1,1,0,0,1-1,1H4a1,1,0,0,1-1-1V9A0,0,0,0,1,3,9Z"
        style="fill: #2ca9bc; stroke-width: 2;"></path>
    <path id="primary-upstroke" d="M16.55,14.5h-.1m-1.9,0h-.1"
        style="fill: none; stroke: rgb(0, 0, 0); stroke-linecap: round; stroke-linejoin: round; stroke-width: 2.5;">
    </path>
    <path id="primary" d="M21,9H3m18,9V6a1,1,0,0,0-1-1H4A1,1,0,0,0,3,6V18a1,1,0,0,0,1,1H20A1,1,0,0,0,21,18Z"
        style="fill: none; stroke: rgb(0, 0, 0); stroke-linecap: round; stroke-linejoin: round; stroke-width: 1.5;">
    </path>
</svg>