<svg fill="#000000" width="32px" height="32px" viewBox="0 0 24 24" id="clipboard-delete" data-name="Flat Line"
    xmlns="http://www.w3.org/2000/svg" class="icon flat-line">
    <path id="secondary" d="M17,5H14V7H8V5H5A1,1,0,0,0,4,6V20a1,1,0,0,0,1,1h7V17a2,2,0,0,1,2-2h4V6A1,1,0,0,0,17,5Z"
        style="fill: rgb(0, 0, 0); stroke-width: 1.3;"></path>
    <path id="primary" d="M14,5h3a1,1,0,0,1,1,1v9"
        style="fill: none; stroke: rgb(0, 255, 255); stroke-linecap: round; stroke-linejoin: round; stroke-width: 1.3;">
    </path>
    <path id="primary-2" data-name="primary" d="M8,5H5A1,1,0,0,0,4,6V20a1,1,0,0,0,1,1h7"
        style="fill: none; stroke: rgb(0, 255, 255); stroke-linecap: round; stroke-linejoin: round; stroke-width: 1.3;">
    </path>
    <path id="primary-3" data-name="primary" d="M14,4a1,1,0,0,0-1-1H9A1,1,0,0,0,8,4V7h6ZM8,17h4M8,13h6m2,6h4"
        style="fill: none; stroke: rgb(0, 255, 255); stroke-linecap: round; stroke-linejoin: round; stroke-width: 1.3;">
    </path>
</svg>