<svg width="32px" height="32px" viewBox="0 0 24 24" title="view item" data-name="Flat Line"
    xmlns="http://www.w3.org/2000/svg">
    <path id="secondary" d="M18,5H15V7H9V5H6A1,1,0,0,0,5,6V20a1,1,0,0,0,1,1H18a1,1,0,0,0,1-1V6A1,1,0,0,0,18,5Z"
        style="fill: rgb(0, 0, 0); stroke-width: 1.3;"></path>
    <path id="primary" d="M15,5h3a1,1,0,0,1,1,1V20a1,1,0,0,1-1,1H6a1,1,0,0,1-1-1V6A1,1,0,0,1,6,5H9"
        style="fill: none; stroke: rgb(0, 255, 255); stroke-linecap: round; stroke-linejoin: round; stroke-width: 1.3;">
    </path>
    <path id="primary-2" data-name="primary" d="M15,7H9V4a1,1,0,0,1,1-1h4a1,1,0,0,1,1,1ZM9,17h6M9,13h6"
        style="fill: none; stroke: rgb(0, 255, 255); stroke-linecap: round; stroke-linejoin: round; stroke-width: 1.3;">
    </path>
</svg>